<?xml version="1.0" encoding="utf-8"?>
<!-- Generator: Adobe Illustrator 19.1.0, SVG Export Plug-In . SVG Version: 6.00 Build 0)  -->
<svg version="1.1" id="Arrow" xmlns="http://www.w3.org/2000/svg" xmlns:xlink="http://www.w3.org/1999/xlink" x="0px" y="0px"
	width="100%" height="100%"
	 viewBox="0 0 46.3 48.2" style="enable-background:new 0 0 46.3 48.2;" xml:space="preserve">
<style type="text/css">
	.st0{opacity:0.11;}
	.st1{opacity:0.3;fill:#FFFFFF;}
</style>
<g class="st0">
	<polygon points="23.2,5.3 5.6,22.5 16.2,22.5 16.2,45.9 30.1,45.9 30.1,22.5 40.7,22.5 	"/>
	<polygon points="6.5,5.2 23.1,5.2 39.8,5.2 39.8,2.3 6.5,2.3 	"/>
</g>
<path class="st1" d="M32.4,48.2H14V24.8H0L17.7,7.5H4.2V0h37.9v7.5H28.7l17.7,17.3h-14V48.2z M16.2,45.9h13.9V22.5h10.6L23.2,5.3
	L5.6,22.5h10.6V45.9z M23.1,5.2h16.8V2.3H6.5v2.9H23.1z"/>
</svg>
