<?xml version="1.0" encoding="utf-8"?>
<!-- Generator: Adobe Illustrator 24.0.2, SVG Export Plug-In . SVG Version: 6.00 Build 0)  -->
<svg version="1.1" xmlns="http://www.w3.org/2000/svg" xmlns:xlink="http://www.w3.org/1999/xlink" x="0px" y="0px"
	 viewBox="0 0 95.5 32" style="enable-background:new 0 0 95.5 32;" xml:space="preserve">
<style type="text/css">
	.st0{display:none;}
	.st1{display:inline;}
	.st2{fill-rule:evenodd;clip-rule:evenodd;fill:#7B7B7A;}
	.st3{fill-rule:evenodd;clip-rule:evenodd;fill:#BCBCBB;}
	.st4{fill-rule:evenodd;clip-rule:evenodd;fill:#E64011;}
	.st5{fill:#7C7B7B;}
	.st6{fill-rule:evenodd;clip-rule:evenodd;fill:#FFFFFF;}
	.st7{fill:#FFFFFF;}
</style>
<g id="Bremen" class="st0">
	<g class="st1">
		<polygon class="st2" points="0.1,0 0.1,31.8 31.9,31.8 31.9,21.2 10.7,21.2 10.7,0 		"/>
		<polygon class="st3" points="10.7,0 10.7,21.2 31.9,21.2 31.9,10.6 21.3,10.6 21.3,0 		"/>
		<polygon class="st4" points="21.3,10.6 31.9,10.6 31.9,0 21.3,0 		"/>
		<polygon class="st2" points="62.3,9.7 63.7,8.3 68.3,15.3 72.5,15.3 66.1,6 72,0 67.5,0 62.3,5.6 62.3,0 59,0 59,15.3 62.3,15.3 
					"/>
		<path class="st2" d="M51.2,5.1c-0.1,1.1-0.8,1.8-1.9,2l-3,0l0-4.1l3,0C50.4,3.1,51.3,4,51.2,5.1z M51.8,9.3
			c1.5-0.9,2.6-2.4,2.6-4.3c0-2.7-2.4-5-5.1-5h-3h-3.2v15.3h3.2V10l2,0l3.5,5.4h4.2L51.8,9.3z"/>
		<polygon class="st2" points="73.1,0 77.3,15.3 80.6,15.3 82.8,5.2 85.1,15.3 88.4,15.3 92.6,0 89.1,0 86.7,10.6 84.5,0 81.2,0 
			79,10.6 76.6,0 		"/>
	</g>
	<g class="st1">
		<path class="st5" d="M43.1,20.2H48c1.9,0,3.7,0.7,3.7,2.8c0,1.2-0.8,2.3-2,2.6v0c1.5,0.2,2.4,1.3,2.4,2.8c0,1.1-0.4,3.3-4.1,3.3
			h-4.9V20.2z M44.2,25.3H48c1.8,0,2.6-0.9,2.6-2c0-1.4-0.9-2.2-2.6-2.2h-3.8V25.3z M44.2,30.8H48c1.6,0,3-0.5,3-2.4
			c0-1.5-1.1-2.2-3-2.2h-3.8V30.8z"/>
		<path class="st5" d="M53.7,23.4h0.9v2h0c0.5-1.3,1.6-2.1,3.2-2.1v1c-1.8-0.1-3.1,1.3-3.1,3v4.4h-1V23.4z"/>
		<path class="st5" d="M59.1,27.9c0,1.5,0.8,3.3,2.7,3.3c1.5,0,2.3-0.9,2.6-2.1h1c-0.4,1.9-1.5,3-3.6,3c-2.6,0-3.8-2-3.8-4.4
			c0-2.2,1.1-4.4,3.8-4.4c2.7,0,3.7,2.3,3.7,4.7H59.1z M64.5,27c0-1.5-1-3-2.6-3c-1.7,0-2.6,1.5-2.7,3H64.5z"/>
		<path class="st5" d="M66.9,23.4h0.9v1.4h0c0.5-1,1.4-1.6,2.7-1.6c1.1,0,2.1,0.5,2.4,1.6c0.5-1.1,1.6-1.6,2.6-1.6
			c1.8,0,2.8,1,2.8,2.9v5.7h-1v-5.6c0-1.4-0.5-2.1-2-2.1c-1.8,0-2.3,1.5-2.3,3v4.7h-1v-5.7c0-1.1-0.5-2.1-1.7-2.1
			c-1.8,0-2.5,1.3-2.5,3.1v4.7h-1V23.4z"/>
		<path class="st5" d="M80.9,27.9c0,1.5,0.8,3.3,2.7,3.3c1.5,0,2.3-0.9,2.6-2.1h1c-0.4,1.9-1.5,3-3.6,3c-2.6,0-3.8-2-3.8-4.4
			c0-2.2,1.1-4.4,3.8-4.4c2.7,0,3.7,2.3,3.7,4.7H80.9z M86.3,27c0-1.5-1-3-2.6-3c-1.7,0-2.6,1.5-2.7,3H86.3z"/>
		<path class="st5" d="M88.7,23.4h1v1.4h0c0.4-1,1.5-1.7,2.7-1.7c2.3,0,3.1,1.2,3.1,3.2v5.4h-1v-5.2c0-1.4-0.5-2.5-2.1-2.5
			c-1.6,0-2.6,1.2-2.6,2.9v4.9h-1V23.4z"/>
	</g>
</g>
<g id="Bremen_x5F_off_canvas">
	<g>
		<polygon class="st6" points="0.1,0 0.1,31.8 31.9,31.8 31.9,21.2 10.7,21.2 10.7,0 		"/>
		<polygon class="st4" points="21.3,10.6 31.9,10.6 31.9,0 21.3,0 		"/>
		<polygon class="st6" points="62.3,9.7 63.7,8.3 68.3,15.3 72.5,15.3 66.1,6 72,0 67.5,0 62.3,5.6 62.3,0 59,0 59,15.3 62.3,15.3 
					"/>
		<path class="st6" d="M51.2,5.1c-0.1,1.1-0.8,1.8-1.9,2l-3,0l0-4.1l3,0C50.4,3.1,51.3,4,51.2,5.1z M51.8,9.3
			c1.5-0.9,2.6-2.4,2.6-4.3c0-2.7-2.4-5-5.1-5h-3h-3.2v15.3h3.2V10l2,0l3.5,5.4h4.2L51.8,9.3z"/>
		<polygon class="st6" points="73.1,0 77.3,15.3 80.6,15.3 82.8,5.2 85.1,15.3 88.4,15.3 92.6,0 89.1,0 86.7,10.6 84.5,0 81.2,0 
			79,10.6 76.6,0 		"/>
	</g>
	<g>
		<path class="st7" d="M43.1,20.2H48c1.9,0,3.7,0.7,3.7,2.8c0,1.2-0.8,2.3-2,2.6v0c1.5,0.2,2.4,1.3,2.4,2.8c0,1.1-0.4,3.3-4.1,3.3
			h-4.9V20.2z M44.2,25.3H48c1.8,0,2.6-0.9,2.6-2c0-1.4-0.9-2.2-2.6-2.2h-3.8V25.3z M44.2,30.8H48c1.6,0,3-0.5,3-2.4
			c0-1.5-1.1-2.2-3-2.2h-3.8V30.8z"/>
		<path class="st7" d="M53.7,23.4h0.9v2h0c0.5-1.3,1.6-2.1,3.2-2.1v1c-1.8-0.1-3.1,1.3-3.1,3v4.4h-1V23.4z"/>
		<path class="st7" d="M59.1,27.9c0,1.5,0.8,3.3,2.7,3.3c1.5,0,2.3-0.9,2.6-2.1h1c-0.4,1.9-1.5,3-3.6,3c-2.6,0-3.8-2-3.8-4.4
			c0-2.2,1.1-4.4,3.8-4.4c2.7,0,3.7,2.3,3.7,4.7H59.1z M64.5,27c0-1.5-1-3-2.6-3c-1.7,0-2.6,1.5-2.7,3H64.5z"/>
		<path class="st7" d="M66.9,23.4h0.9v1.4h0c0.5-1,1.4-1.6,2.7-1.6c1.1,0,2.1,0.5,2.4,1.6c0.5-1.1,1.6-1.6,2.6-1.6
			c1.8,0,2.8,1,2.8,2.9v5.7h-1v-5.6c0-1.4-0.5-2.1-2-2.1c-1.8,0-2.3,1.5-2.3,3v4.7h-1v-5.7c0-1.1-0.5-2.1-1.7-2.1
			c-1.8,0-2.5,1.3-2.5,3.1v4.7h-1V23.4z"/>
		<path class="st7" d="M80.9,27.9c0,1.5,0.8,3.3,2.7,3.3c1.5,0,2.3-0.9,2.6-2.1h1c-0.4,1.9-1.5,3-3.6,3c-2.6,0-3.8-2-3.8-4.4
			c0-2.2,1.1-4.4,3.8-4.4c2.7,0,3.7,2.3,3.7,4.7H80.9z M86.3,27c0-1.5-1-3-2.6-3c-1.7,0-2.6,1.5-2.7,3H86.3z"/>
		<path class="st7" d="M88.7,23.4h1v1.4h0c0.4-1,1.5-1.7,2.7-1.7c2.3,0,3.1,1.2,3.1,3.2v5.4h-1v-5.2c0-1.4-0.5-2.5-2.1-2.5
			c-1.6,0-2.6,1.2-2.6,2.9v4.9h-1V23.4z"/>
	</g>
</g>
</svg>
