<?xml version="1.0" encoding="utf-8"?>
<!-- Generator: Adobe Illustrator 24.2.1, SVG Export Plug-In . SVG Version: 6.00 Build 0)  -->
<svg version="1.1" xmlns="http://www.w3.org/2000/svg" xmlns:xlink="http://www.w3.org/1999/xlink" x="0px" y="0px"
	 viewBox="0 0 16 16" style="enable-background:new 0 0 16 16;" xml:space="preserve">
<style type="text/css">
	.st0{fill:#5599FF;}
	.st1{fill:#999999;}
	.st2{fill:#FFFFFF;}
	.st3{fill:#666666;}
	.st4{display:none;}
	.st5{display:inline;fill:#FFFFFF;}
	.st6{display:inline;fill:#999999;}
	.st7{display:inline;fill:#B9B9B9;}
	.st8{display:inline;}
	.st9{fill:#B9B9B9;}
	.st10{display:inline;fill:#5599FF;}
	.st11{display:inline;fill:#666666;}
	.st12{fill:#663399;}
	.st13{opacity:0.2;enable-background:new    ;}
	.st14{fill:#FF8700;}
	.st15{display:inline;fill:#FF8700;}
</style>
<g id="_x30_1_x5F_Slider">
	<path class="st0" d="M3.1,5.4v5.2h9.6V5.4"/>
	<path class="st1" d="M1,1v14h14V1H1z M2,2h12v12H2V2z"/>
	<g>
		<circle class="st2" cx="6.5" cy="9.4" r="0.5"/>
		<circle class="st3" cx="8" cy="9.4" r="0.5"/>
		<circle class="st3" cx="9.6" cy="9.4" r="0.5"/>
	</g>
</g>
<g id="_x30_2_x5F_Verk.Text" class="st4">
	<path class="st5" d="M1,1h14v14H1V1z"/>
	<path class="st5" d="M1,1h14v14H1V1z"/>
	<path class="st6" d="M1,1v14h14V1H1z M2,2h12v12H2V2z"/>
	<path class="st7" d="M3,7.6h10v1H3V7.6z M3,9.6h10v1H3V9.6z M3,11.6h10v1H3V11.6z"/>
	<g class="st8">
		<rect x="3" y="3.6" class="st3" width="10" height="1"/>
		<rect x="3" y="5.6" class="st3" width="10" height="1"/>
	</g>
</g>
<g id="_x30_3_x5F_Beb.Liste" class="st4">
	<path class="st5" d="M1,1h14v14H1V1z"/>
	<path class="st5" d="M1,1h14v14H1V1z"/>
	<path class="st6" d="M1,1v14h14V1H1z M2,2h12v12H2V2z"/>
	<g class="st8">
		<path class="st0" d="M2.9,3.3h4v4h-4V3.3z"/>
		<path class="st2" d="M5.5,6.6h-2L4,6l0.5-0.7L5,6L5.5,6.6z"/>
		<path class="st2" d="M6.2,6.6H4.4l0.4-0.4l0.4-0.4l0.4,0.4L6.2,6.6z"/>
		<ellipse class="st2" cx="5.9" cy="5" rx="0.3" ry="0.3"/>
	</g>
	<g class="st8">
		<path class="st9" d="M7.9,5.3h5v1h-5V5.3z"/>
		<path class="st9" d="M7.9,3.3h5v1h-5V3.3z"/>
	</g>
	<g class="st8">
		<path class="st0" d="M2.9,9h4v4h-4V9z"/>
		<path class="st2" d="M5.5,12.3h-2L4,11.6L4.5,11L5,11.6L5.5,12.3z"/>
		<path class="st2" d="M6.2,12.3H4.4l0.4-0.4l0.4-0.4l0.4,0.4L6.2,12.3z"/>
		<ellipse class="st2" cx="5.9" cy="10.6" rx="0.3" ry="0.3"/>
	</g>
	<g class="st8">
		<path class="st9" d="M7.9,11h5v1h-5V11z"/>
		<path class="st9" d="M7.9,9h5v1h-5V9z"/>
	</g>
</g>
<g id="_x30_4_x5F_Bild_x5F_ueberl.Text" class="st4">
	<path class="st10" d="M12.9,4H3.1v8.1h9.8V4z"/>
	<g class="st8">
		<path class="st2" d="M6.3,8.9H4l0.6-0.8l0.6-0.8l0.6,0.8L6.3,8.9z"/>
		<path class="st2" d="M7,8.9H5l0.5-0.5L6,7.9l0.5,0.5L7,8.9z"/>
		<ellipse class="st2" cx="6.6" cy="7" rx="0.4" ry="0.4"/>
	</g>
	<rect x="8" y="5.7" class="st5" width="4" height="5"/>
	<path class="st7" d="M8.6,6.7h2.6v1H8.6V6.7z M8.6,8.7h2.6v1H8.6V8.7z"/>
	<path class="st6" d="M14,2v12H2V2H14 M15,1H1v14h14V1z"/>
</g>
<g id="_x30_5_x5F_Mission_x5F_St." class="st4">
	<path class="st7" d="M3.2,6.5h9.3v1H3.2V6.5z M3.2,8.5h9.3v1H3.2V8.5z"/>
	<path class="st11" d="M9.6,11.8v-1.2h1.1v1c0,0.5-0.1,0.9-0.2,1.1c-0.2,0.3-0.4,0.6-0.8,0.7L9.5,13c0.2-0.1,0.4-0.2,0.5-0.4
		c0.1-0.2,0.2-0.4,0.2-0.8H9.6z M11.4,11.8v-1.2h1.1v1c0,0.5-0.1,0.9-0.2,1.1c-0.2,0.3-0.4,0.6-0.8,0.7L11.3,13
		c0.2-0.1,0.4-0.2,0.5-0.4c0.1-0.2,0.2-0.4,0.2-0.8H11.4z"/>
	<path class="st11" d="M4.3,4.2v1.2H3.2v-1c0-0.5,0.1-0.9,0.2-1.1C3.6,3,3.8,2.8,4.2,2.6L4.4,3C4.2,3.1,4.1,3.2,4,3.4
		C3.9,3.6,3.8,3.8,3.8,4.2H4.3z M6.1,4.2v1.2H5v-1c0-0.5,0.1-0.9,0.2-1.1C5.4,3,5.6,2.8,6,2.6L6.2,3C6,3.1,5.9,3.2,5.8,3.4
		C5.7,3.6,5.6,3.8,5.6,4.2H6.1z"/>
	<path class="st6" d="M14,2v12H2V2H14 M15,1H1v14h14V1z"/>
</g>
<g id="_x30_6_x5F_Thema" class="st4">
	<path class="st5" d="M1,1h14v14H1V1z"/>
	<path class="st6" d="M14,2v12H2V2H14 M15,1H1v14h14V1z"/>
	<path class="st10" d="M3,3h10v8H3V3z"/>
	<g class="st8">
		<path class="st2" d="M9.3,9.3H4.7l1.1-1.5L7,6.2l1.1,1.5L9.3,9.3z"/>
		<path class="st2" d="M10.8,9.3H6.8l1-1l1-1l1,1L10.8,9.3z"/>
		<ellipse class="st2" cx="10.1" cy="5.4" rx="0.8" ry="0.8"/>
	</g>
	<g class="st8">
		<path class="st3" d="M3,12h10v1H3V12z"/>
	</g>
</g>
<g id="_x30_7_x5F_Medien" class="st4">
	<path class="st5" d="M1,1h14v14H1V1z"/>
	<path class="st6" d="M14,2v12H2V2H14 M15,1H1v14h14V1z"/>
	<g class="st8">
		<path class="st12" d="M3,3.7h9.9v8.5H3V3.7z"/>
		<g>
			<path class="st13" d="M12.2,4.5v7.1H3.7V4.5H12.2 M12.9,3.7H3v8.5h9.9V3.7z"/>
			<path class="st2" d="M6.6,9.8V6.2l1.8,0.9L10.1,8L8.3,8.9L6.6,9.8z"/>
		</g>
	</g>
</g>
<g id="_x30_8_x5F_Logo" class="st4">
	<path class="st5" d="M1,1h14v14H1V1z"/>
	<path class="st6" d="M14,2v12H2V2H14 M15,1H1v14h14V1z"/>
	<g class="st8">
		
			<rect x="3.9" y="3.9" transform="matrix(4.514795e-11 -1 1 4.514795e-11 6.727955e-06 16)" class="st14" width="8.1" height="8.1"/>
		<g>
			<path class="st2" d="M6.6,5.4h1.2v4.4H10v1H6.6V5.4z"/>
		</g>
	</g>
</g>
<g id="_x30_9_x5F_Foerderer" class="st4">
	<path class="st5" d="M1,1h14v14H1V1z"/>
	<path class="st6" d="M14,2v12H2V2H14 M15,1H1v14h14V1z"/>
	<path class="st11" d="M3.9,3.9L3.9,3.9v8.2h8.1V3.9H3.9z"/>
	<g class="st8">
		<path class="st2" d="M6.3,5.2h3.5v1.1H7.6v1.3h2.1v1.1H7.6V11H6.3V5.2z"/>
	</g>
</g>
<g id="_x31_0_x5F_Verweis" class="st4">
	<path class="st5" d="M1,1h14v14H1V1z"/>
	<path class="st5" d="M1,1h14v14H1V1z"/>
	<path class="st6" d="M1,1v14h14V1H1z M2,2h12v12H2V2z"/>
	<polygon class="st11" points="8.9,10.4 3.3,10.4 3.3,11.4 8.9,11.4 	"/>
	<polygon class="st10" points="11.6,4.7 10.3,3.7 10.3,5.1 6.7,5.1 5.5,5.1 5.5,6.2 5.5,9.2 6.7,9.2 6.7,6.2 10.3,6.2 10.3,7.7 
		11.6,6.7 12.8,5.7 	"/>
</g>
<g id="_x31_1_x5F_Uebersicht_1_" class="st4">
	<path class="st5" d="M1,1h14v14H1V1z"/>
	<path class="st5" d="M1,1h14v14H1V1z"/>
	<path class="st6" d="M1,1v14h14V1H1z M2,2h12v12H2V2z"/>
	<path class="st7" d="M3,9h10v4H3V9z"/>
	<path class="st11" d="M3,3h10v1H3V3z M3,5h10v1H3V5z M3,7h10v1H3V7z"/>
</g>
<g id="_x31_2_x5F_Inhalsverzeichnis" class="st4">
	<path class="st5" d="M1,1h14v14H1V1z"/>
	<path class="st6" d="M1,1v14h14V1H1z M2,2h12v12H2V2z"/>
	<path class="st15" d="M13,11.7h-1v-1h1V11.7z M13,9.7h-1v-1h1V9.7z M13,7.7h-1v-1h1V7.7z M13,5.7h-1v-1h1V5.7z"/>
	<path class="st11" d="M11,11.7H3v-1h8V11.7z M11,9.7H3v-1h8V9.7z M11,7.7H3v-1h8V7.7z M11,5.7H3v-1h8V5.7z"/>
</g>
</svg>
