<?xml version="1.0" encoding="utf-8"?>
<!-- Generator: Adobe Illustrator 24.0.2, SVG Export Plug-In . SVG Version: 6.00 Build 0)  -->
<svg version="1.1" xmlns="http://www.w3.org/2000/svg" xmlns:xlink="http://www.w3.org/1999/xlink" x="0px" y="0px"
	 viewBox="0 0 92.6 32" style="enable-background:new 0 0 92.6 32;" xml:space="preserve">
<style type="text/css">
	.st0{display:none;}
	.st1{display:inline;}
	.st2{fill-rule:evenodd;clip-rule:evenodd;fill:#7B7B7A;}
	.st3{fill-rule:evenodd;clip-rule:evenodd;fill:#BCBCBB;}
	.st4{fill-rule:evenodd;clip-rule:evenodd;fill:#E64011;}
	.st5{fill:#7C7B7B;}
	.st6{fill-rule:evenodd;clip-rule:evenodd;fill:#FFFFFF;}
	.st7{fill:#FFFFFF;}
</style>
<g id="BW" class="st0">
	<g class="st1">
		<polygon class="st2" points="0.1,0 0.1,31.8 31.9,31.8 31.9,21.2 10.7,21.2 10.7,0 		"/>
		<polygon class="st3" points="10.7,0 10.7,21.2 31.9,21.2 31.9,10.6 21.3,10.6 21.3,0 		"/>
		<polygon class="st4" points="21.3,10.6 31.9,10.6 31.9,0 21.3,0 		"/>
		<polygon class="st2" points="62.3,9.7 63.7,8.3 68.3,15.3 72.5,15.3 66.1,6 72,0 67.5,0 62.3,5.6 62.3,0 59,0 59,15.3 62.3,15.3 
					"/>
		<path class="st2" d="M51.2,5.1c-0.1,1.1-0.8,1.8-1.9,2l-3,0l0-4.1l3,0C50.4,3.1,51.3,4,51.2,5.1z M51.8,9.3
			c1.5-0.9,2.6-2.4,2.6-4.3c0-2.7-2.4-5-5.1-5h-3h-3.2v15.3h3.2V10l2,0l3.5,5.4h4.2L51.8,9.3z"/>
		<polygon class="st2" points="73.1,0 77.3,15.3 80.6,15.3 82.8,5.2 85.1,15.3 88.4,15.3 92.6,0 89.1,0 86.7,10.6 84.5,0 81.2,0 
			79,10.6 76.6,0 		"/>
	</g>
	<g class="st1">
		<path class="st5" d="M43.1,20.3H48c1.9,0,3.7,0.7,3.7,2.8c0,1.2-0.8,2.3-2,2.6v0c1.5,0.2,2.4,1.3,2.4,2.8c0,1.1-0.4,3.3-4.1,3.3
			h-4.9V20.3z M44.2,25.3H48c1.8,0,2.6-0.9,2.6-1.9c0-1.4-0.9-2.2-2.6-2.2h-3.8V25.3z M44.2,30.8H48c1.6,0,3-0.5,3-2.4
			c0-1.5-1.1-2.2-3-2.2h-3.8V30.8z"/>
		<path class="st5" d="M52.7,20.3h1.2l2.6,10.1h0l2.8-10.1h1.4l2.8,10.1h0l2.6-10.1h1.1l-3.2,11.5H63l-2.9-10.3h0l-2.9,10.3H56
			L52.7,20.3z"/>
	</g>
</g>
<g id="BW_x5F_off_canvas">
	<g>
		<polygon class="st6" points="0.1,0 0.1,31.8 31.9,31.8 31.9,21.2 10.7,21.2 10.7,0 		"/>
		<polygon class="st4" points="21.3,10.6 31.9,10.6 31.9,0 21.3,0 		"/>
		<polygon class="st6" points="62.3,9.7 63.7,8.3 68.3,15.3 72.5,15.3 66.1,6 72,0 67.5,0 62.3,5.6 62.3,0 59,0 59,15.3 62.3,15.3 
					"/>
		<path class="st6" d="M51.2,5.1c-0.1,1.1-0.8,1.8-1.9,2l-3,0l0-4.1l3,0C50.4,3.1,51.3,4,51.2,5.1z M51.8,9.3
			c1.5-0.9,2.6-2.4,2.6-4.3c0-2.7-2.4-5-5.1-5h-3h-3.2v15.3h3.2V10l2,0l3.5,5.4h4.2L51.8,9.3z"/>
		<polygon class="st6" points="73.1,0 77.3,15.3 80.6,15.3 82.8,5.2 85.1,15.3 88.4,15.3 92.6,0 89.1,0 86.7,10.6 84.5,0 81.2,0 
			79,10.6 76.6,0 		"/>
	</g>
	<g>
		<path class="st7" d="M43.1,20.3H48c1.9,0,3.7,0.7,3.7,2.8c0,1.2-0.8,2.3-2,2.6v0c1.5,0.2,2.4,1.3,2.4,2.8c0,1.1-0.4,3.3-4.1,3.3
			h-4.9V20.3z M44.2,25.3H48c1.8,0,2.6-0.9,2.6-1.9c0-1.4-0.9-2.2-2.6-2.2h-3.8V25.3z M44.2,30.8H48c1.6,0,3-0.5,3-2.4
			c0-1.5-1.1-2.2-3-2.2h-3.8V30.8z"/>
		<path class="st7" d="M52.7,20.3h1.2l2.6,10.1h0l2.8-10.1h1.4l2.8,10.1h0l2.6-10.1h1.1l-3.2,11.5H63l-2.9-10.3h0l-2.9,10.3H56
			L52.7,20.3z"/>
	</g>
</g>
</svg>
