<svg xmlns="http://www.w3.org/2000/svg" width="137" height="43" viewBox="0 0 137 43">
  <g fill="none" fill-rule="evenodd">
    <polygon fill="#7B7B7A" points="0 0 0 38.7 38.733 38.7 38.733 25.801 12.911 25.801 12.911 0"/>
    <polygon fill="#BCBCBB" points="12.911 0 12.911 25.8 38.733 25.8 38.733 12.9 25.822 12.9 25.822 0"/>
    <polygon fill="#E64011" points="25.822 12.9 38.733 12.9 38.733 0 25.822 0"/>
    <polygon fill="#7B7B7A" points="75.735 14.003 77.484 12.264 83.043 20.774 88.225 20.782 80.333 9.412 87.599 2.15 82.06 2.15 75.735 8.947 75.743 2.158 71.728 2.158 71.728 20.783 75.743 20.783"/>
    <path fill="#7B7B7A" d="M62.2434631,8.31115022 C62.1599387,9.62991818 61.2934652,10.5540284 59.9047807,10.7152582 L56.2507733,10.7177521 L56.251998,5.77760944 L59.8935135,5.77511555 C61.2187587,5.86901043 62.3269874,6.96320378 62.2434631,8.31115022 Z M62.9590538,13.4150166 C64.7965899,12.3640923 66.1081185,10.4320772 66.1081185,8.2070304 C66.1081185,4.8612303 63.1684771,2.15 59.883471,2.15 L56.2507733,2.15 L52.3612565,2.15 L52.3612565,20.7833333 L56.2495486,20.7833333 L56.2495486,14.2629385 L58.7054345,14.26032 L62.9901611,20.7807148 L68.1413613,20.7807148 L62.9590538,13.4150166 Z"/>
    <polygon fill="#7B7B7A" points="88.942 2.15 93.983 20.783 98.058 20.783 100.778 8.444 103.499 20.783 107.553 20.783 112.613 2.15 108.384 2.15 105.505 15.058 102.765 2.15 98.79 2.15 96.146 15.056 93.175 2.15"/>
    <polygon fill="#7B7B7A" points="63.12 25.083 63.12 26.19 58.379 26.19 58.379 38.7 57.084 38.7 57.084 26.19 52.361 26.19 52.361 25.083"/>
    <path fill="#7B7B7A" d="M65.8485448 25.1969374L65.8485448 30.7570351 65.8871549 30.7570351C66.1184461 30.1498454 66.5296305 29.6625121 67.1208311 29.2944172 67.7117858 28.9259517 68.3609015 28.7422132 69.0680551 28.7422132 69.7620518 28.7422132 70.3432925 28.8325379 70.8126379 29.0134345 71.2816144 29.194331 71.6575088 29.4493655 71.940444 29.7785379 72.2230104 30.1079575 72.4223315 30.5116385 72.5379157 30.9894575 72.6536228 31.4671529 72.7114148 32.0034172 72.7114148 32.5972621L72.7114148 39.0288511 71.4969206 39.0288511 71.4969206 32.7907621C71.4969206 32.3648397 71.4583106 31.9675839 71.3812135 31.5994891 71.3041164 31.2313943 71.1691043 30.9119833 70.9764231 30.6406385 70.7837418 30.3692937 70.5234316 30.1562707 70.1957382 30.0013224 69.8680449 29.8463741 69.4598115 29.7689 68.97153 29.7689 68.4831255 29.7689 68.0493161 29.8560121 67.6703477 30.0306069 67.2911333 30.2047075 66.969711 30.4438023 66.7063267 30.7470264 66.4428195 31.0508684 66.2372273 31.4126615 66.0894271 31.8319115 65.941504 32.2519029 65.8610869 32.7069862 65.8485448 33.1977793L65.8485448 39.0288511 64.6339276 39.0288511 64.6339276 25.1969374 65.8485448 25.1969374zM81.9453583 39.0288264L81.9453583 37.2270276 81.9068712 37.2270276C81.5854489 37.8987172 81.1194235 38.4123695 80.5092868 38.7671195 79.8986582 39.1222402 79.2205236 39.3001713 78.4752518 39.3001713 77.8454412 39.3001713 77.3089586 39.2129356 76.8656811 39.0384644 76.4222807 38.8642402 76.0622483 38.6155075 75.786076 38.2927603 75.5095348 37.9698897 75.3071396 37.5758466 75.1788904 37.1111253 75.0501493 36.6459098 74.9859632 36.1165649 74.9859632 35.522473L74.9859632 29.0328092 76.2005804 29.0328092 76.2005804 35.5417489C76.2262795 36.446108 76.4348228 37.1304011 76.8270711 37.5951224 77.2189505 38.0603379 77.8970851 38.2927603 78.8608602 38.2927603 79.3877517 38.2927603 79.8374232 38.1797 80.2103665 37.9535793 80.5830639 37.7278293 80.8914522 37.4275707 81.1357774 37.052927 81.3797338 36.6785305 81.5597499 36.2489011 81.67558 35.7645333 81.7911641 35.2804126 81.8489562 34.7864069 81.8489562 34.2826397L81.8489562 29.0328092 83.0635734 29.0328092 83.0635734 39.0288264 81.9453583 39.0288264zM76.6632859 27.3084845L77.9741822 27.3084845 77.9741822 25.3518609 76.6632859 25.3518609 76.6632859 27.3084845zM80.0754774 27.3084845L81.3863737 27.3084845 81.3863737 25.3518609 80.0754774 25.3518609 80.0754774 27.3084845zM86.4755558 29.0327227L86.4755558 31.376717 86.5141659 31.376717C86.8224312 30.5631767 87.3011217 29.9367112 87.9502374 29.4975675 88.5991071 29.058671 89.3736438 28.8584986 90.2732327 28.8970503L90.2732327 30.1176078C89.7205192 30.0916595 89.2192037 30.1657974 88.7696552 30.3403922 88.3196148 30.5146164 87.9310553 30.7635963 87.603362 31.0860963 87.2755457 31.408967 87.0216294 31.7932486 86.8418592 32.2388175 86.6617201 32.6843865 86.571835 33.1720905 86.571835 33.7014353L86.571835 39.0288635 85.3573407 39.0288635 85.3573407 29.0327227 86.4755558 29.0327227zM92.5287958 27.0095259L93.9633508 27.0095259 93.9633508 25.0833333 92.5287958 25.0833333 92.5287958 27.0095259zM92.5287958 38.7L93.9633508 38.7 93.9633508 28.8594492 92.5287958 28.8594492 92.5287958 38.7zM97.4280276 29.0327598L97.4280276 30.7569609 97.4670759 30.7569609C97.7008684 30.1498948 98.1168449 29.6624379 98.7147567 29.2944667 99.3124199 28.9260011 99.9689042 28.7421391 100.684085 28.7421391 101.38596 28.7421391 101.973799 28.8325874 102.448473 29.0134839 102.922773 29.1943805 103.302934 29.4492914 103.588957 29.7785874 103.874731 30.1080069 104.076439 30.5116879 104.193336 30.9893833 104.310232 31.4672023 104.368804 32.0034667 104.368804 32.5973115L104.368804 39.028777 103.140523 39.028777 103.140523 32.7908115C103.140523 32.3648891 103.101475 31.9675098 103.023503 31.5995385 102.94553 31.2314437 102.808986 30.9119092 102.614117 30.6406879 102.419248 30.3693431 102.155983 30.1561966 101.82457 30.0012483 101.493157 29.8463 101.080289 29.7688259 100.586465 29.7688259 100.092391 29.7688259 99.6537818 29.8559379 99.270387 30.0305328 98.8869922 30.2047569 98.5619211 30.4438517 98.2955469 30.7470759 98.0290484 31.0509178 97.8209979 31.4127109 97.6716443 31.8319609 97.522042 32.2518287 97.440712 32.7070356 97.4280276 33.1977052L97.4280276 39.028777 96.1996221 39.028777 96.1996221 29.0327598 97.4280276 29.0327598zM114.945514 40.2104491C114.782854 40.804294 114.526553 41.3079376 114.175491 41.7216273 113.824554 42.1348227 113.36642 42.451021 112.800966 42.6708399 112.235387 42.8902882 111.54346 43.0000124 110.724565 43.0000124 110.217683 43.0000124 109.72361 42.9421848 109.242719 42.8257882 108.761703 42.7093917 108.32956 42.5284951 107.946289 42.2834693 107.56277 42.0378256 107.244415 41.7245928 106.990974 41.3438945 106.737533 40.9628256 106.591288 40.5073716 106.55224 39.9780267L107.780645 39.9780267C107.845435 40.3524233 107.97228 40.665656 108.160806 40.9176014 108.34896 41.1692997 108.576534 41.3728083 108.843282 41.5277566 109.109407 41.6827049 109.405254 41.7957652 109.730325 41.8668141 110.055023 41.9377394 110.386436 41.973202 110.724565 41.973202 111.868283 41.973202 112.693894 41.6504549 113.200776 41.0047135 113.707782 40.358725 113.961099 39.4291589 113.961099 38.2151503L113.961099 36.859044 113.921926 36.859044C113.636152 37.4790842 113.216818 37.9765497 112.664421 38.3509463 112.1119 38.7255899 111.465488 38.9124175 110.724565 38.9124175 109.918478 38.9124175 109.229661 38.780452 108.657989 38.5154089 108.085819 38.2508601 107.614876 37.8857307 107.244415 37.4208859 106.873953 36.9561647 106.604097 36.4105095 106.435343 35.7841675 106.266217 35.157702 106.181778 34.4894721 106.181778 33.7789836 106.181778 33.0946905 106.282383 32.4457365 106.483967 31.8318744 106.685427 31.2188773 106.977916 30.6828601 107.361311 30.2240698 107.744706 29.7658974 108.219379 29.4041043 108.784709 29.1391848 109.350039 28.8747595 109.996451 28.7421761 110.724565 28.7421761 111.101369 28.7421761 111.455788 28.7940727 111.787077 28.8971244 112.118615 29.0005468 112.420804 29.1458572 112.693894 29.3330555 112.96661 29.5205009 113.210476 29.7369836 113.424993 29.9820095 113.63951 30.227406 113.805154 30.4857767 113.921926 30.756998L113.961099 30.756998 113.961099 29.0327968 115.189504 29.0327968 115.189504 38.2151503C115.189504 38.9513399 115.108174 39.6163572 114.945514 40.2104491M112.128315 37.5469204C112.531234 37.3211704 112.869238 37.0240009 113.142203 36.6555353 113.415293 36.2874405 113.619737 35.8649779 113.756281 35.3867882 113.892826 34.9090928 113.961099 34.4182997 113.961099 33.9145325 113.961099 33.4238629 113.902526 32.9330698 113.78563 32.4424003 113.668609 31.9516072 113.479834 31.5060382 113.220175 31.1054463 112.959895 30.7054721 112.625621 30.3823543 112.215987 30.1369578 111.806726 29.8919319 111.309544 29.7688629 110.724565 29.7688629 110.139711 29.7688629 109.639171 29.8885957 109.223319 30.1273198 108.807218 30.3662911 108.462871 30.6795239 108.190031 31.0668945 107.916941 31.4542652 107.718715 31.8967451 107.595476 32.3938399 107.471616 32.8911819 107.410183 33.3981618 107.410183 33.9145325 107.410183 34.4182997 107.474974 34.9090928 107.605176 35.3867882 107.734757 35.8649779 107.93659 36.2874405 108.20943 36.6555353 108.48252 37.0240009 108.826618 37.3211704 109.242719 37.5469204 109.658695 37.7730411 110.152395 37.8857307 110.724565 37.8857307 111.257313 37.8857307 111.72552 37.7730411 112.128315 37.5469204M118.435576 35.7259569C118.559063 36.1973506 118.757538 36.6203075 119.03013 36.994704 119.30322 37.3693477 119.647566 37.6792443 120.063543 37.9246408 120.479395 38.1700374 120.980059 38.2927356 121.564913 38.2927356 122.461781 38.2927356 123.16378 38.0603132 123.670662 37.5952213 124.177669 37.1303764 124.528357 36.5102126 124.72335 35.7355948L125.951756 35.7355948C125.691475 36.8720057 125.213941 37.750046 124.518658 38.3702098 123.823249 38.9898793 122.838461 39.3001466 121.564913 39.3001466 120.771884 39.3001466 120.0863 39.1611379 119.508037 38.8834914 118.929525 38.6059684 118.458333 38.2248994 118.094587 37.740408 117.730468 37.2562874 117.46086 36.6944454 117.285516 36.0551293 117.109798 35.4156897 117.022126 34.741158 117.022126 34.0306695 117.022126 33.371954 117.109798 32.7265833 117.285516 32.093569 117.46086 31.4609253 117.730468 30.8956236 118.094587 30.3986523 118.458333 29.9015575 118.929525 29.500842 119.508037 29.1973707 120.0863 28.8941466 120.771884 28.7421638 121.564913 28.7421638 122.370751 28.7421638 123.05932 28.9037845 123.63149 29.2266552 124.203411 29.5494023 124.667887 29.9723592 125.02554 30.4954023 125.382944 31.0183218 125.639618 31.6188391 125.795811 32.2970776 125.951756 32.9749454 126.016795 33.6625747 125.990555 34.3600891L118.250532 34.3600891C118.250532 34.7993563 118.312089 35.2544397 118.435576 35.7259569M124.518658 31.996819C124.369055 31.5706494 124.157896 31.1929167 123.885179 30.8633736 123.61209 30.5342011 123.280552 30.2696523 122.890691 30.0691092 122.500954 29.8689368 122.058862 29.7688506 121.564913 29.7688506 121.058031 29.7688506 120.609597 29.8689368 120.219736 30.0691092 119.829626 30.2696523 119.498337 30.5342011 119.225247 30.8633736 118.952282 31.1929167 118.734408 31.5738621 118.572121 32.0064569 118.409461 32.4394224 118.302389 32.8815316 118.250532 33.3334023L124.762274 33.3334023C124.749217 32.8685575 124.667887 32.4227414 124.518658 31.996819M129.246103 29.0327598L129.246103 30.7569609 129.285276 30.7569609C129.519193 30.1498948 129.935045 29.6624379 130.533081 29.2944667 131.130744 28.9260011 131.787229 28.7421391 132.502286 28.7421391 133.204036 28.7421391 133.791875 28.8325874 134.266797 29.0134839 134.740849 29.1943805 135.12101 29.4492914 135.407157 29.7785874 135.692807 30.1080069 135.894639 30.5116879 136.011784 30.9893833 136.128556 31.4672023 136.187129 32.0034667 136.187129 32.5973115L136.187129 39.028777 134.958723 39.028777 134.958723 32.7908115C134.958723 32.3648891 134.919924 31.9675098 134.841951 31.5995385 134.763979 31.2314437 134.627434 30.9119092 134.432317 30.6406879 134.237324 30.3693431 133.974308 30.1561966 133.642646 30.0012483 133.311357 29.8463 132.898489 29.7688259 132.40454 29.7688259 131.910716 29.7688259 131.471982 29.8559379 131.088836 30.0305328 130.705068 30.2047569 130.380121 30.4438517 130.113747 30.7470759 129.847373 31.0509178 129.639322 31.4127109 129.490093 31.8319609 129.340491 32.2518287 129.259161 32.7070356 129.246103 33.1977052L129.246103 39.028777 128.018071 39.028777 128.018071 29.0327598 129.246103 29.0327598z"/>
  </g>
</svg>
