<?xml version="1.0" encoding="UTF-8"?>
<svg width="18px" height="18px" viewBox="0 0 18 18" version="1.1" xmlns="http://www.w3.org/2000/svg" xmlns:xlink="http://www.w3.org/1999/xlink">
    <title>ico-close-circled</title>
    <g id="Page-1" stroke="none" stroke-width="1" fill="none" fill-rule="evenodd">
        <g id="ico-close-circled" fill="#E64415" fill-rule="nonzero">
            <path d="M11.9998125,10.8 C12.299625,11.1751875 12.299625,11.7 11.9998125,11.9998125 C11.624625,12.3001875 11.0998125,12.3001875 10.8,11.9998125 L9.0748125,10.274625 L8.924625,10.274625 L7.1994375,11.9998125 C6.8248125,12.3001875 6.3,12.3001875 5.999625,11.9998125 C5.6998125,11.624625 5.6998125,11.0998125 5.999625,10.8 L7.7248125,9.0748125 L7.7248125,8.9251875 L5.999625,7.2 C5.6998125,6.8248125 5.6998125,6.3 5.999625,5.999625 C6.3,5.6998125 6.8248125,5.6998125 7.1994375,5.999625 L8.924625,7.7248125 L9.0748125,7.7248125 L10.8,5.999625 C11.174625,5.6998125 11.6994375,5.6998125 11.9998125,5.999625 C12.299625,6.3748125 12.299625,6.899625 11.9998125,7.2 L10.274625,8.9251875 L10.274625,9.0748125 L11.9998125,10.8 Z M9,16.124625 C5.099625,16.124625 1.8748125,12.9751875 1.8748125,9 C1.8748125,5.1001875 5.0248125,1.8748125 9,1.8748125 C12.8998125,1.8748125 16.124625,5.0248125 16.124625,9 C16.124625,12.8998125 12.8998125,16.124625 9,16.124625 L9,16.124625 Z M0,9 C0,13.95 4.05,18 9,18 C13.9494375,18 18,13.95 18,9 C18,4.05 13.9494375,0 9,0 C4.05,0 0,4.05 0,9 Z"></path>
        </g>
    </g>
</svg>