<?xml version="1.0" encoding="UTF-8"?>
<svg width="16px" height="16px" viewBox="0 0 16 16" version="1.1" xmlns="http://www.w3.org/2000/svg" xmlns:xlink="http://www.w3.org/1999/xlink">
    <title>ico-chevron-right-circled</title>
    <g id="Pages---Search" stroke="none" stroke-width="1" fill="none" fill-rule="evenodd">
        <g id="RKW---Search---Exploid-(Desktop)" transform="translate(-710.000000, -308.000000)" fill="#808080">
            <path d="M716.533,319.3335 C716.0665,319.1335 715.6665,318.533 715.6,318.067 L718.733,316 L718.733,315.933 L715.4665,313.6665 C715.8,313.2 716.2665,312.8665 716.8,312.6665 L720.333,315.1335 C720.4665,315.467 720.533,316 720.533,316.4 L716.533,319.3335 Z M718,322.3335 C714.533,322.3335 711.6665,319.533 711.6665,316 C711.6665,312.533 714.4665,309.6665 718,309.6665 C721.4665,309.6665 724.333,312.467 724.333,316 C724.333,319.467 721.4665,322.3335 718,322.3335 L718,322.3335 Z M718,308 C713.6,308 710,311.6 710,316 C710,320.4 713.6,324 718,324 C722.3995,324 726,320.4 726,316 C726,311.6 722.3995,308 718,308 L718,308 Z" id="ico-chevron-right-circled" transform="translate(718.000000, 316.000000) rotate(90.000000) translate(-718.000000, -316.000000) "></path>
        </g>
    </g>
</svg>