<?xml version="1.0" encoding="UTF-8"?>
<svg width="18px" height="18px" viewBox="0 0 18 18" version="1.1" xmlns="http://www.w3.org/2000/svg" xmlns:xlink="http://www.w3.org/1999/xlink">
    <title>ico_arrow-circled</title>
    <g id="Pages---Topic" stroke="none" stroke-width="1" fill="none" fill-rule="evenodd">
        <g id="RKW-(VS)---Topic-(Desktop)" transform="translate(-1181.000000, -2120.000000)" fill="#CCCCCC">
            <g id="o/desktop/sidebar" transform="translate(1162.000000, 685.000000)">
                <g id="o/desktop/sidebar/more-info-big" transform="translate(0.000000, 424.000000)">
                    <g id="m/desktop/sidebar/widget/more-info/doctype" transform="translate(19.000000, 744.000000)">
                        <g id="a/link/show-all" transform="translate(0.000000, 264.000000)">
                            <g id="ico_arrow-circled" transform="translate(0.000000, 3.000000)">
                                <path d="M4.95009,9.675135 L7.95024,12.674835 C8.32509,13.050135 9.00009,12.749985 9.00009,12.224835 L9.00009,10.649835 C9.00009,10.350135 9.30024,10.049985 9.59994,10.049985 L12.37509,10.049985 C12.97494,10.049985 13.42494,9.599985 13.42494,9.000135 C13.42494,8.400285 12.97494,7.950285 12.37509,7.950285 L9.59994,7.950285 C9.30024,7.950285 9.00009,7.650135 9.00009,7.349985 L9.00009,5.774985 C9.00009,5.250285 8.32509,4.950135 7.95024,5.324985 L4.95009,8.325135 C4.57524,8.699985 4.57524,9.299835 4.95009,9.675135" id="Fill-1" transform="translate(9.046946, 9.000054) rotate(-180.000000) translate(-9.046946, -9.000054) "></path>
                                <path d="M9.00009,1.87506 C12.90024,1.87506 16.12494,5.02506 16.12494,8.99991 C16.12494,12.90006 12.97494,16.12521 9.00009,16.12521 C5.09994,16.12521 1.87524,12.97521 1.87524,8.99991 C1.87524,5.10021 5.09994,1.87506 9.00009,1.87506 M9.00009,17.99991 C13.95009,17.99991 18.00009,13.94991 18.00009,8.99991 C18.00009,4.04991 13.95009,-9e-05 9.00009,-9e-05 C4.05009,-9e-05 9e-05,4.04991 9e-05,8.99991 C9e-05,13.94991 4.05009,17.99991 9.00009,17.99991" id="Fill-3"></path>
                            </g>
                        </g>
                    </g>
                </g>
            </g>
        </g>
    </g>
</svg>