<?xml version="1.0" encoding="UTF-8"?>
<svg width="17px" height="16px" viewBox="0 0 17 16" version="1.1" xmlns="http://www.w3.org/2000/svg" xmlns:xlink="http://www.w3.org/1999/xlink">
    <title>ico_book</title>
    <g id="Pages---Network" stroke="none" stroke-width="1" fill="none" fill-rule="evenodd">
        <g id="RKW-(VS)---Network---Detail---RKW-(Desktop)" transform="translate(-1182.000000, -998.000000)" fill="#CCCCCC">
            <g id="o/desktop/sidebar" transform="translate(1162.000000, 202.000000)">
                <g id="o/desktop/sidebar/more-info">
                    <g id="m/desktop/sidebar/widget/more-info/doctype" transform="translate(20.000000, 600.000000)">
                        <g id="a/desktop/sidebar/link" transform="translate(0.000000, 192.000000)">
                            <path d="M10.4669504,15.0632724 C10.3421725,15.1155298 10.2269928,15.1101974 10.1230112,15.0478084 C10.0190296,14.9854194 9.96730538,14.8915694 9.96730538,14.7662582 L9.96730538,14.3604632 C9.96730538,14.2874095 9.99823324,14.2090233 10.0606222,14.125838 C10.1230112,14.0426527 10.1907326,13.9903953 10.2637863,13.9695989 L13.0600922,12.8604616 C13.1854034,12.818869 13.2995166,12.8295337 13.4040314,12.8919227 C13.508013,12.9543117 13.5602705,13.0481618 13.5602705,13.1729397 L13.5602705,13.5632707 C13.5602705,13.6363245 13.5288094,13.7147107 13.4664204,13.797896 C13.4040314,13.8810813 13.3357768,13.9386711 13.2632563,13.9695989 L10.4669504,15.0632724 Z M10.4669504,11.3609932 C10.3421725,11.4127174 10.2269928,11.4079183 10.1230112,11.3449961 C10.0190296,11.2826071 9.96730538,11.188757 9.96730538,11.0639791 L9.96730538,10.6576509 C9.96730538,10.5851303 9.99823324,10.5067442 10.0606222,10.4235589 C10.1230112,10.3403736 10.1907326,10.2881162 10.2637863,10.2673198 L13.0600922,9.15818249 C13.1854034,9.10592506 13.2995166,9.11125745 13.4040314,9.17364642 C13.508013,9.2360354 13.5602705,9.32988548 13.5602705,9.45466343 L13.5602705,9.86099163 C13.5602705,9.93404539 13.5288094,10.0118983 13.4664204,10.0956168 C13.4040314,10.1788021 13.3357768,10.2358587 13.2632563,10.2673198 L10.4669504,11.3609932 Z M14.2161546,16.3131848 C14.3723936,16.2715922 14.4950386,16.1804083 14.5835563,16.0396332 C14.6715408,15.898858 14.7163329,15.740486 14.7163329,15.5629174 L14.7163329,6.31495157 C14.7163329,6.18964038 14.6640754,6.08565876 14.5600938,6.00247346 C14.4555789,5.91928816 14.3414658,5.90329098 14.2161546,5.95554842 L9.21703795,7.95519507 C9.09226,8.0074525 8.99307753,8.0906378 8.92055701,8.20528421 C8.84750325,8.31993061 8.81124299,8.43937617 8.81124299,8.56415413 L8.81124299,17.9219672 C8.81124299,18.0472784 8.86296719,18.1485938 8.96694881,18.22698 C9.07093044,18.3048329 9.18611008,18.3181639 9.31088804,18.2659064 L14.2161546,16.3131848 Z M2.74938083,13.9226739 L5.60860892,15.0163473 C5.73338687,15.0686047 5.84803328,15.0632724 5.9520149,15.0008834 C6.05599653,14.9384944 6.10825396,14.8446443 6.10825396,14.7193331 L6.10825396,14.3135382 C6.10825396,14.2404844 6.07732609,14.1626315 6.01440388,14.078913 C5.9520149,13.9957277 5.88429354,13.9434702 5.81177302,13.9226739 L2.99946997,12.8135366 C2.87469202,12.7618124 2.75951238,12.7666115 2.65606399,12.8295337 C2.55154912,12.8919227 2.49982493,12.9857728 2.49982493,13.1105507 L2.49982493,13.5168789 C2.49982493,13.6208606 2.52328745,13.7067121 2.56967925,13.7744334 C2.61660429,13.8421548 2.67686031,13.891746 2.74938083,13.9226739 L2.74938083,13.9226739 Z M2.74938083,10.2049309 L5.60860892,11.3140682 C5.73338687,11.3657924 5.84803328,11.3609932 5.9520149,11.298071 C6.05599653,11.235682 6.10825396,11.141832 6.10825396,11.017054 L6.10825396,10.6107258 C6.10825396,10.5382053 6.07732609,10.4598191 6.01440388,10.3766338 C5.9520149,10.2934485 5.88429354,10.2358587 5.81177302,10.2049309 L2.99946997,9.11125745 C2.87469202,9.05900002 2.75951238,9.06433241 2.65606399,9.12672138 C2.55154912,9.18911036 2.49982493,9.28296044 2.49982493,9.40827163 L2.49982493,9.81406659 C2.49982493,9.90791667 2.52328745,9.99110197 2.56967925,10.0641557 C2.61660429,10.1372095 2.67686031,10.1841345 2.74938083,10.2049309 L2.74938083,10.2049309 Z M1.79648255,16.3131848 L6.70174909,18.2659064 C6.82706028,18.3181639 6.94170669,18.3048329 7.04568831,18.22698 C7.14966994,18.1485938 7.20192737,18.0472784 7.20192737,17.9219672 L7.20192737,8.56415413 C7.20192737,8.43937617 7.16780007,8.31993061 7.10061194,8.20528421 C7.03235733,8.0906378 6.9363743,8.0074525 6.81159634,7.95519507 L1.79648255,5.95554842 C1.6717046,5.90329098 1.55705819,5.91928816 1.45307656,6.00247346 C1.3485617,6.08565876 1.29683751,6.18964038 1.29683751,6.31495157 L1.29683751,15.5629174 C1.29683751,15.740486 1.34376255,15.898858 1.43707939,16.0396332 C1.53092947,16.1804083 1.65037503,16.2715922 1.79648255,16.3131848 L1.79648255,16.3131848 Z M1.24991247,4.04975185 L7.65518061,6.7052826 C7.77995856,6.75754003 7.90473651,6.78366875 8.0300477,6.78366875 C8.15482565,6.78366875 8.2796036,6.75754003 8.40491479,6.7052826 L14.8256469,4.11214083 C15.0965323,3.98736288 15.3620854,4.0081592 15.6223061,4.1745298 C15.8825268,4.34143364 16.0126371,4.58619039 16.0126371,4.90880005 L16.0126371,16.3131848 C16.0126371,16.4902202 15.9683783,16.6491255 15.8798606,16.7893673 C15.7913429,16.9301425 15.6692311,17.0266587 15.5129921,17.0783829 L8.35798975,19.9216139 C8.2332118,19.9738713 8.10790061,20 7.98312266,20 C7.85781147,20 7.73303352,19.9738713 7.60825557,19.9216139 L0.500178282,17.0783829 C0.354070767,16.9951976 0.234625207,16.891216 0.140775124,16.7659048 C0.0469250414,16.6411269 0,16.4902202 0,16.3131848 L0,4.90880005 C0,4.58619039 0.132776537,4.33876745 0.398329612,4.16653122 C0.663882687,3.99482822 0.947565892,3.95590177 1.24991247,4.04975185 L1.24991247,4.04975185 Z" id="ico_book"></path>
                        </g>
                    </g>
                </g>
            </g>
        </g>
    </g>
</svg>