<?xml version="1.0" encoding="UTF-8"?>
<svg width="15px" height="11px" viewBox="0 0 15 11" version="1.1" xmlns="http://www.w3.org/2000/svg" xmlns:xlink="http://www.w3.org/1999/xlink">
    <title>ico_check</title>
    <g id="Pages---Publications" stroke="none" stroke-width="1" fill="none" fill-rule="evenodd">
        <g id="RKW-(VS)---Puplic---Detail-(Desktop)" transform="translate(-111.000000, -2142.000000)" fill="#E64415">
            <g id="o/desktop/content" transform="translate(64.000000, 850.000000)">
                <g id="o/desktop/print-order" transform="translate(39.000000, 619.000000)">
                    <g id="a/form/checkbox" transform="translate(1.000000, 664.000000)">
                        <path d="M21.6385,11.0163 L12.73,19.7748 C12.616,19.8963 12.4645,19.9568 12.2755,19.9568 C12.0865,19.9568 11.921,19.8963 11.7785,19.7748 L7.351,15.4433 C7.0945,15.1798 6.9785,14.8658 7.003,14.5028 C7.0285,14.1388 7.208,13.8503 7.5435,13.6363 C7.7785,13.4648 8.046,13.4013 8.3455,13.4433 C8.645,13.4863 8.9015,13.6148 9.1155,13.8288 L11.7785,16.4488 C11.921,16.5628 12.0795,16.6198 12.254,16.6198 C12.429,16.6198 12.5875,16.5628 12.73,16.4488 L19.9275,9.4013 C20.12,9.1803 20.3695,9.0498 20.676,9.0108 C20.9825,8.9718 21.257,9.0378 21.4995,9.2088 C21.806,9.4438 21.972,9.7378 21.997,10.0908 C22.022,10.4438 21.902,10.7523 21.6385,11.0163" id="ico_check"></path>
                    </g>
                </g>
            </g>
        </g>
    </g>
</svg>