<?xml version="1.0" encoding="UTF-8"?>
<svg width="26px" height="32px" viewBox="0 0 26 32" version="1.1" xmlns="http://www.w3.org/2000/svg" xmlns:xlink="http://www.w3.org/1999/xlink">
    <!-- Generator: Sketch 64 (93537) - https://sketch.com -->
    <title>ico-people</title>
    <desc>Created with Sketch.</desc>
    <g id="Symbols" stroke="none" stroke-width="1" fill="none" fill-rule="evenodd">
        <g id="m/one-fourth/tiles/network" transform="translate(-26.000000, -23.000000)" fill="#CCCCCC">
            <path d="M45.3128,24.2496 C45.1256,24.2704 44.9736,24.3488 44.86,24.484 C44.7448,24.62 44.688,24.7808 44.688,24.968 C44.688,25.0104 44.6928,25.0576 44.7032,25.1088 C44.7136,25.1616 44.7192,25.208 44.7192,25.2496 C44.844,25.5416 44.9424,25.8648 45.016,26.2184 C45.0888,26.5728 45.1256,26.9368 45.1256,27.312 C45.1256,27.896 45.0416,28.4584 44.8752,28.9992 C44.708,29.5416 44.4792,30.0312 44.188,30.468 C44.1456,30.5104 44.1144,30.5672 44.0944,30.64 C44.0728,30.7136 44.0632,30.7808 44.0632,30.8432 C44.0632,31.0104 44.1096,31.156 44.2032,31.2808 C44.2968,31.4056 44.4168,31.4896 44.5632,31.5312 C44.7704,31.6144 44.9896,31.6768 45.2192,31.7184 C45.448,31.7608 45.6768,31.7808 45.9064,31.7808 C46.9688,31.7808 47.864,31.4112 48.5944,30.6712 C49.3232,29.9328 49.688,29.0416 49.688,27.9992 C49.688,26.9584 49.3232,26.0672 48.5944,25.328 C47.864,24.5888 46.9688,24.2184 45.9064,24.2184 L45.5944,24.2184 C45.4896,24.2184 45.3856,24.2296 45.2816,24.2496 L45.3128,24.2496 Z M46.9688,43.4992 C46.9064,44.1248 46.6768,44.6664 46.2816,45.1248 C45.8856,45.5832 45.4064,45.896 44.844,46.0624 C44.6976,46.104 44.5728,46.1872 44.4688,46.312 C44.364,46.4368 44.3016,46.5728 44.2816,46.7184 L43.844,51.2808 L43.844,51.3432 C43.844,51.5936 43.9376,51.812 44.1256,52 C44.3128,52.1872 44.5312,52.2808 44.7816,52.2808 L47.344,52.2808 L47.3752,52.2808 C47.6456,52.2808 47.8856,52.1824 48.0944,51.984 C48.3016,51.7864 48.4272,51.552 48.4688,51.2808 L49.0312,43.7808 C49.052,43.5728 49.1296,43.4056 49.2656,43.2808 C49.4008,43.156 49.5624,43.0832 49.7504,43.0624 L50.2504,43.0624 C50.5208,43.0416 50.7552,42.9368 50.9536,42.7496 C51.1512,42.5624 51.2704,42.3328 51.3128,42.0624 L51.9688,34.9056 C51.948,34.4272 51.7704,34.0208 51.4376,33.6872 C51.104,33.3544 50.6976,33.1872 50.2192,33.1872 L50.188,33.1872 L48.1568,33.1872 L48.1256,33.1872 C47.9584,33.1872 47.8072,33.2496 47.672,33.3744 C47.536,33.5 47.4688,33.656 47.4688,33.8432 C47.4688,33.8856 47.4736,33.9216 47.4848,33.9528 C47.4952,33.984 47.5,34.0208 47.5,34.0624 C47.5632,34.2296 47.6144,34.4056 47.6568,34.5936 C47.6976,34.7808 47.7192,34.9792 47.7192,35.1872 L46.9688,43.4992 Z M43.3752,27.3744 C43.3752,28.5832 42.948,29.6144 42.0944,30.468 C41.2392,31.3232 40.208,31.7496 39,31.7496 C37.792,31.7496 36.7608,31.3232 35.9064,30.468 C35.052,29.6144 34.6256,28.5832 34.6256,27.3744 C34.6256,26.1664 35.052,25.1352 35.9064,24.2808 C36.7608,23.4272 37.792,23 39,23 L39.0312,23 C40.2192,23 41.2344,23.4216 42.0784,24.2656 C42.9224,25.1088 43.3544,26.1248 43.3752,27.312 L43.3752,27.3744 Z M32.7504,43.3432 C32.792,43.656 32.9272,43.9216 33.1568,44.14 C33.3856,44.3592 33.6568,44.468 33.9688,44.468 L34.5312,44.4992 C34.7608,44.5208 34.9536,44.604 35.1096,44.7496 C35.2656,44.896 35.3544,45.0728 35.3752,45.2808 L36.0312,53.8432 C36.0728,54.176 36.208,54.4528 36.4376,54.6712 C36.6664,54.8904 36.948,55 37.2816,55 L40.7192,55 L40.7504,55 C41.0632,55 41.3384,54.8904 41.5784,54.6712 C41.8176,54.4528 41.948,54.1872 41.9688,53.8744 L42.6568,45.2808 C42.6568,45.0728 42.7344,44.8904 42.8912,44.7336 C43.0472,44.5776 43.2392,44.4992 43.4688,44.4992 L44.0312,44.468 C44.344,44.468 44.6096,44.3592 44.8288,44.14 C45.0472,43.9216 45.1768,43.6664 45.2192,43.3744 L45.9688,35.1872 C45.948,34.6456 45.7448,34.1824 45.36,33.7968 C44.9736,33.4112 44.5104,33.2184 43.9688,33.2184 L43.9376,33.2184 L34.0312,33.2184 L34,33.2184 C33.4584,33.2184 32.9952,33.4112 32.6096,33.7968 C32.224,34.1824 32.0208,34.6456 32,35.1872 L32.7504,43.3432 Z M32.6568,24.2496 C32.844,24.2704 32.9952,24.3488 33.1096,24.484 C33.224,24.62 33.2816,24.7808 33.2816,24.968 C33.2816,25.0104 33.276,25.0576 33.2656,25.1088 C33.2552,25.1616 33.2504,25.208 33.2504,25.2496 C33.1256,25.5416 33.0264,25.8648 32.9536,26.2184 C32.88,26.5728 32.844,26.9368 32.844,27.312 C32.844,27.896 32.9272,28.4584 33.0944,28.9992 C33.2608,29.5416 33.4896,30.0312 33.7816,30.468 C33.8232,30.5104 33.8544,30.5672 33.8752,30.64 C33.896,30.7136 33.9064,30.7808 33.9064,30.8432 C33.9064,31.0104 33.86,31.156 33.7656,31.2808 C33.672,31.4056 33.552,31.4896 33.4064,31.5312 C33.1976,31.6144 32.9792,31.6768 32.7504,31.7184 C32.5208,31.7608 32.292,31.7808 32.0632,31.7808 C31.0208,31.7808 30.1296,31.4112 29.3912,30.6712 C28.6512,29.9328 28.2816,29.0416 28.2816,27.9992 C28.2816,26.9584 28.6512,26.0672 29.3912,25.328 C30.1296,24.5888 31.0208,24.2184 32.0632,24.2184 L32.3752,24.2184 C32.4792,24.2184 32.5832,24.2296 32.688,24.2496 L32.6568,24.2496 Z M31,43.4992 C31.0632,44.1248 31.292,44.6664 31.688,45.1248 C32.0832,45.5832 32.5624,45.896 33.1256,46.0624 C33.2704,46.104 33.396,46.1872 33.5,46.312 C33.604,46.4368 33.6664,46.5728 33.688,46.7184 L34.1256,51.2808 L34.1256,51.3432 C34.1256,51.5936 34.0312,51.812 33.844,52 C33.6568,52.1872 33.4376,52.2808 33.188,52.2808 L30.6256,52.2808 L30.5944,52.2808 C30.3232,52.2808 30.0832,52.1824 29.8752,51.984 C29.6664,51.7864 29.5416,51.552 29.5,51.2808 L28.9376,43.7808 C28.9168,43.5728 28.8384,43.4056 28.7032,43.2808 C28.5672,43.156 28.4064,43.0832 28.2192,43.0624 L27.7192,43.0624 C27.448,43.0416 27.2136,42.9368 27.016,42.7496 C26.8176,42.5624 26.6976,42.3328 26.6568,42.0624 L26,34.9056 C26.0208,34.4272 26.1976,34.0208 26.5312,33.6872 C26.864,33.3544 27.2704,33.1872 27.7504,33.1872 L27.7816,33.1872 L29.8128,33.1872 L29.844,33.1872 C30.0104,33.1872 30.1616,33.2496 30.2968,33.3744 C30.432,33.5 30.5,33.656 30.5,33.8432 C30.5,33.8856 30.4952,33.9216 30.4848,33.9528 C30.4736,33.984 30.4688,34.0208 30.4688,34.0624 C30.4064,34.2296 30.3544,34.4056 30.3128,34.5936 C30.2704,34.7808 30.2504,34.9792 30.2504,35.1872 L31,43.4992 Z" id="ico-people"></path>
        </g>
    </g>
</svg>