<?xml version="1.0" encoding="UTF-8"?>
<svg width="16px" height="16px" viewBox="0 0 16 16" version="1.1" xmlns="http://www.w3.org/2000/svg" xmlns:xlink="http://www.w3.org/1999/xlink">
    <title>ico_globe</title>
    <g id="Pages---Network" stroke="none" stroke-width="1" fill="none" fill-rule="evenodd">
        <g id="RKW-(VS)---Network---Detail---RKW-(Desktop)" transform="translate(-1182.000000, -398.000000)" fill="#CCCCCC">
            <g id="o/desktop/sidebar" transform="translate(1162.000000, 202.000000)">
                <g id="o/desktop/sidebar/more-info">
                    <g id="m/desktop/sidebar/widget/more-info/doctype" transform="translate(0.000000, 72.000000)">
                        <g id="a/desktop/sidebar/link" transform="translate(20.000000, 120.000000)">
                            <path d="M8.5935,17.75 C8.6245,17.948 8.7235,18.1095 8.8905,18.2345 C9.057,18.3595 9.229,18.396 9.406,18.3435 C9.885,18.2395 10.346,18.0755 10.789,17.8515 C11.2315,17.628 11.6405,17.3645 12.0155,17.0625 C12.3905,16.7605 12.729,16.417 13.031,16.031 C13.333,15.646 13.588,15.2345 13.7965,14.797 C13.9215,14.5265 13.95,14.253 13.8825,13.9765 C13.8145,13.7005 13.6715,13.474 13.453,13.297 C13.2965,13.203 13.1455,13.1145 13,13.031 C12.854,12.948 12.7185,12.8545 12.5935,12.75 C12.0205,12.271 11.812,11.917 11.9685,11.6875 C12.1245,11.4585 12.453,11.281 12.953,11.156 C13.3485,11.052 13.6405,10.81 13.828,10.4295 C14.0155,10.05 14.0205,9.672 13.8435,9.297 C13.5935,8.7345 13.268,8.219 12.867,7.75 C12.466,7.2815 12.0075,6.875 11.492,6.5315 C10.9765,6.1875 10.414,5.922 9.8045,5.7345 C9.195,5.547 8.5625,5.453 7.906,5.453 C7.729,5.453 7.544,5.464 7.3515,5.4845 C7.1585,5.5055 6.9735,5.5265 6.7965,5.547 C6.703,5.547 6.6325,5.589 6.5855,5.672 C6.539,5.7555 6.5255,5.849 6.5465,5.953 C6.578,6.0265 6.604,6.099 6.6245,6.172 C6.6455,6.245 6.6715,6.323 6.703,6.4065 C6.828,6.7815 7.01,6.9585 7.2495,6.9375 C7.4895,6.917 7.8225,6.8545 8.25,6.75 C8.677,6.625 9.044,6.646 9.3515,6.8125 C9.6585,6.9795 9.8225,7.2765 9.8435,7.703 C9.875,8.1305 9.695,8.4505 9.3045,8.664 C8.914,8.878 8.5935,9.125 8.3435,9.4065 C8.0935,9.698 8.023,10 8.1325,10.3125 C8.242,10.625 8.2965,10.87 8.2965,11.047 C8.2965,11.245 8.2265,11.3415 8.0855,11.336 C7.945,11.331 7.802,11.25 7.656,11.0935 C7.3225,10.698 7.0465,10.5105 6.828,10.531 C6.609,10.552 6.4475,10.573 6.3435,10.5935 C6.25,10.625 6.1015,10.758 5.898,10.992 C5.695,11.2265 5.677,11.578 5.8435,12.047 C6.0205,12.547 6.359,12.7475 6.859,12.6485 C7.359,12.55 7.9735,12.552 8.703,12.656 C9.4215,12.75 9.971,13.003 10.3515,13.414 C10.7315,13.8255 10.5465,14.422 9.7965,15.203 C9.4005,15.6515 9.096,16.12 8.8825,16.6095 C8.669,17.099 8.5725,17.4795 8.5935,17.75 M3.828,6.9765 C3.338,7.378 2.919,7.839 2.57,8.3595 C2.221,8.8805 1.953,9.448 1.7655,10.0625 C1.578,10.677 1.4895,11.323 1.4995,12 C1.4995,12.802 1.6325,13.56 1.898,14.2735 C2.164,14.9875 2.5335,15.628 3.0075,16.1955 C3.4815,16.763 4.0415,17.2375 4.6875,17.617 C5.333,17.9975 6.036,18.2605 6.7965,18.406 C6.9215,18.427 7.0155,18.3985 7.078,18.3205 C7.1405,18.242 7.1455,18.1515 7.0935,18.047 C7.0205,17.87 6.8875,17.6565 6.695,17.4065 C6.502,17.1565 6.3225,16.8545 6.156,16.5 C5.75,15.6045 5.5675,14.8855 5.609,14.344 C5.6505,13.802 5.5465,13.271 5.2965,12.75 C5.0465,12.2295 4.752,11.857 4.414,11.633 C4.075,11.409 3.854,10.948 3.7495,10.25 C3.6455,9.552 3.656,8.992 3.781,8.5705 C3.906,8.1485 4.2445,7.724 4.7965,7.297 C5.2235,6.953 5.502,6.698 5.6325,6.5315 C5.7625,6.3645 5.802,6.219 5.75,6.094 C5.729,6.052 5.6875,6.021 5.625,6 C5.5625,5.9795 5.505,5.9795 5.453,6 C4.859,6.25 4.3175,6.5755 3.828,6.9765 M11.109,4.633 C12.078,5.0545 12.924,5.628 13.648,6.3515 C14.372,7.0755 14.945,7.922 15.367,8.8905 C15.789,9.8595 16,10.896 16,12 C16,13.1045 15.789,14.1405 15.367,15.1095 C14.945,16.078 14.372,16.925 13.648,17.6485 C12.924,18.3725 12.078,18.9455 11.109,19.367 C10.1405,19.789 9.104,20 8,20 C6.8955,20 5.859,19.789 4.8905,19.367 C3.9215,18.9455 3.075,18.3725 2.3515,17.6485 C1.627,16.925 1.0545,16.078 0.6325,15.1095 C0.2105,14.1405 0,13.1045 0,12 C0,10.896 0.2105,9.8595 0.6325,8.8905 C1.0545,7.922 1.627,7.0755 2.3515,6.3515 C3.075,5.628 3.9215,5.0545 4.8905,4.633 C5.859,4.211 6.8955,4 8,4 C9.104,4 10.1405,4.211 11.109,4.633" id="ico_globe"></path>
                        </g>
                    </g>
                </g>
            </g>
        </g>
    </g>
</svg>