<?xml version="1.0" encoding="UTF-8"?>
<svg width="16px" height="16px" viewBox="0 0 16 16" version="1.1" xmlns="http://www.w3.org/2000/svg" xmlns:xlink="http://www.w3.org/1999/xlink">
    <title>ico_globe</title>
    <g id="Pages---Network" stroke="none" stroke-width="1" fill="none" fill-rule="evenodd">
        <g id="RKW-(VS)---Network---Detail---RKW-(Desktop)" transform="translate(-1182.000000, -326.000000)" fill="#FFFFFF">
            <g id="o/desktop/sidebar" transform="translate(1162.000000, 202.000000)">
                <g id="o/desktop/sidebar/more-info">
                    <g id="m/desktop/sidebar/widget/more-info/doctype" transform="translate(0.000000, 72.000000)">
                        <g id="a/desktop/sidebar/link" transform="translate(0.000000, 48.000000)">
                            <path d="M28.5935,17.75 C28.6245,17.948 28.7235,18.1095 28.8905,18.2345 C29.057,18.3595 29.229,18.396 29.406,18.3435 C29.885,18.2395 30.346,18.0755 30.789,17.8515 C31.2315,17.628 31.6405,17.3645 32.0155,17.0625 C32.3905,16.7605 32.729,16.417 33.031,16.031 C33.333,15.646 33.588,15.2345 33.7965,14.797 C33.9215,14.5265 33.95,14.253 33.8825,13.9765 C33.8145,13.7005 33.6715,13.474 33.453,13.297 C33.2965,13.203 33.1455,13.1145 33,13.031 C32.854,12.948 32.7185,12.8545 32.5935,12.75 C32.0205,12.271 31.812,11.917 31.9685,11.6875 C32.1245,11.4585 32.453,11.281 32.953,11.156 C33.3485,11.052 33.6405,10.81 33.828,10.4295 C34.0155,10.05 34.0205,9.672 33.8435,9.297 C33.5935,8.7345 33.268,8.219 32.867,7.75 C32.466,7.2815 32.0075,6.875 31.492,6.5315 C30.9765,6.1875 30.414,5.922 29.8045,5.7345 C29.195,5.547 28.5625,5.453 27.906,5.453 C27.729,5.453 27.544,5.464 27.3515,5.4845 C27.1585,5.5055 26.9735,5.5265 26.7965,5.547 C26.703,5.547 26.6325,5.589 26.5855,5.672 C26.539,5.7555 26.5255,5.849 26.5465,5.953 C26.578,6.0265 26.604,6.099 26.6245,6.172 C26.6455,6.245 26.6715,6.323 26.703,6.4065 C26.828,6.7815 27.01,6.9585 27.2495,6.9375 C27.4895,6.917 27.8225,6.8545 28.25,6.75 C28.677,6.625 29.044,6.646 29.3515,6.8125 C29.6585,6.9795 29.8225,7.2765 29.8435,7.703 C29.875,8.1305 29.695,8.4505 29.3045,8.664 C28.914,8.878 28.5935,9.125 28.3435,9.4065 C28.0935,9.698 28.023,10 28.1325,10.3125 C28.242,10.625 28.2965,10.87 28.2965,11.047 C28.2965,11.245 28.2265,11.3415 28.0855,11.336 C27.945,11.331 27.802,11.25 27.656,11.0935 C27.3225,10.698 27.0465,10.5105 26.828,10.531 C26.609,10.552 26.4475,10.573 26.3435,10.5935 C26.25,10.625 26.1015,10.758 25.898,10.992 C25.695,11.2265 25.677,11.578 25.8435,12.047 C26.0205,12.547 26.359,12.7475 26.859,12.6485 C27.359,12.55 27.9735,12.552 28.703,12.656 C29.4215,12.75 29.971,13.003 30.3515,13.414 C30.7315,13.8255 30.5465,14.422 29.7965,15.203 C29.4005,15.6515 29.096,16.12 28.8825,16.6095 C28.669,17.099 28.5725,17.4795 28.5935,17.75 M23.828,6.9765 C23.338,7.378 22.919,7.839 22.57,8.3595 C22.221,8.8805 21.953,9.448 21.7655,10.0625 C21.578,10.677 21.4895,11.323 21.4995,12 C21.4995,12.802 21.6325,13.56 21.898,14.2735 C22.164,14.9875 22.5335,15.628 23.0075,16.1955 C23.4815,16.763 24.0415,17.2375 24.6875,17.617 C25.333,17.9975 26.036,18.2605 26.7965,18.406 C26.9215,18.427 27.0155,18.3985 27.078,18.3205 C27.1405,18.242 27.1455,18.1515 27.0935,18.047 C27.0205,17.87 26.8875,17.6565 26.695,17.4065 C26.502,17.1565 26.3225,16.8545 26.156,16.5 C25.75,15.6045 25.5675,14.8855 25.609,14.344 C25.6505,13.802 25.5465,13.271 25.2965,12.75 C25.0465,12.2295 24.752,11.857 24.414,11.633 C24.075,11.409 23.854,10.948 23.7495,10.25 C23.6455,9.552 23.656,8.992 23.781,8.5705 C23.906,8.1485 24.2445,7.724 24.7965,7.297 C25.2235,6.953 25.502,6.698 25.6325,6.5315 C25.7625,6.3645 25.802,6.219 25.75,6.094 C25.729,6.052 25.6875,6.021 25.625,6 C25.5625,5.9795 25.505,5.9795 25.453,6 C24.859,6.25 24.3175,6.5755 23.828,6.9765 M31.109,4.633 C32.078,5.0545 32.924,5.628 33.648,6.3515 C34.372,7.0755 34.945,7.922 35.367,8.8905 C35.789,9.8595 36,10.896 36,12 C36,13.1045 35.789,14.1405 35.367,15.1095 C34.945,16.078 34.372,16.925 33.648,17.6485 C32.924,18.3725 32.078,18.9455 31.109,19.367 C30.1405,19.789 29.104,20 28,20 C26.8955,20 25.859,19.789 24.8905,19.367 C23.9215,18.9455 23.075,18.3725 22.3515,17.6485 C21.627,16.925 21.0545,16.078 20.6325,15.1095 C20.2105,14.1405 20,13.1045 20,12 C20,10.896 20.2105,9.8595 20.6325,8.8905 C21.0545,7.922 21.627,7.0755 22.3515,6.3515 C23.075,5.628 23.9215,5.0545 24.8905,4.633 C25.859,4.211 26.8955,4 28,4 C29.104,4 30.1405,4.211 31.109,4.633" id="ico_globe"></path>
                        </g>
                    </g>
                </g>
            </g>
        </g>
    </g>
</svg>