<?xml version="1.0" encoding="UTF-8"?>
<svg width="48px" height="48px" viewBox="0 0 48 48" version="1.1" xmlns="http://www.w3.org/2000/svg" xmlns:xlink="http://www.w3.org/1999/xlink">
    <title>a/form/button/basic/hover</title>
    <g id="Page-1" stroke="none" stroke-width="1" fill="none" fill-rule="evenodd">
        <g id="a/form/button/basic/hover">
            <rect id="form" stroke="#505050" stroke-width="2" fill="#FFFFFF" x="1" y="1" width="46" height="46" rx="8"></rect>
            <g id="Group-3" transform="translate(14.000000, 14.000000)" fill="#505050">
                <path d="M1.48148148,15.5555556 L15.5555556,1.48148148 C16.3737552,0.663281852 17.7003189,0.663281852 18.5185185,1.48148148 C19.3367181,2.29968111 19.3367181,3.62624482 18.5185185,4.44444444 L4.44444444,18.5185185 C3.62624482,19.3367181 2.29968111,19.3367181 1.48148148,18.5185185 C0.663281852,17.7003189 0.663281852,16.3737552 1.48148148,15.5555556 Z" id="form"></path>
                <path d="M4.44444444,1.48148148 L18.5185185,15.5555556 C19.3367181,16.3737552 19.3367181,17.7003189 18.5185185,18.5185185 C17.7003189,19.3367181 16.3737552,19.3367181 15.5555556,18.5185185 L1.48148148,4.44444444 C0.663281852,3.62624482 0.663281852,2.29968111 1.48148148,1.48148148 C2.29968111,0.663281852 3.62624482,0.663281852 4.44444444,1.48148148 Z" id="form"></path>
            </g>
        </g>
    </g>
</svg>