<?xml version="1.0" encoding="utf-8"?>
<!-- Generator: Adobe Illustrator 24.0.2, SVG Export Plug-In . SVG Version: 6.00 Build 0)  -->
<svg version="1.1" xmlns="http://www.w3.org/2000/svg" xmlns:xlink="http://www.w3.org/1999/xlink" x="0px" y="0px"
	 viewBox="0 0 130.8 44" style="enable-background:new 0 0 130.8 44;" xml:space="preserve">
<style type="text/css">
	.st0{fill-rule:evenodd;clip-rule:evenodd;fill:#7B7B7A;}
	.st1{fill-rule:evenodd;clip-rule:evenodd;fill:#BCBCBB;}
	.st2{fill-rule:evenodd;clip-rule:evenodd;fill:#E64011;}
	.st3{fill:#7C7B7B;}
	.st4{display:none;}
	.st5{display:inline;}
	.st6{fill-rule:evenodd;clip-rule:evenodd;fill:#FFFFFF;}
	.st7{fill:#FFFFFF;}
</style>
<g id="Bremen">
	<g>
		<polygon class="st0" points="0,0.1 0,43.7 43.6,43.7 43.6,29.2 14.5,29.2 14.5,0.1 		"/>
		<polygon class="st1" points="14.5,0.1 14.5,29.2 43.6,29.2 43.6,14.6 29.1,14.6 29.1,0.1 		"/>
		<polygon class="st2" points="29.1,14.6 43.6,14.6 43.6,0.1 29.1,0.1 		"/>
		<polygon class="st0" points="85.3,13.5 87.3,11.5 93.5,21.1 99.4,21.1 90.5,8.3 98.7,0.1 92.4,0.1 85.3,7.8 85.3,0.1 80.8,0.1 
			80.8,21.1 85.3,21.1 		"/>
		<path class="st0" d="M70.1,7.1C70,8.5,69,9.6,67.5,9.8l-4.1,0l0-5.6l4.1,0C69,4.3,70.2,5.5,70.1,7.1z M70.9,12.8
			c2.1-1.2,3.5-3.4,3.5-5.9c0-3.8-3.3-6.8-7-6.8h-4.1H59v21h4.4v-7.3l2.8,0l4.8,7.3h5.8L70.9,12.8z"/>
		<polygon class="st0" points="100.2,0.1 105.9,21.1 110.5,21.1 113.5,7.2 116.6,21.1 121.1,21.1 126.8,0.1 122.1,0.1 118.8,14.7 
			115.8,0.1 111.3,0.1 108.3,14.7 105,0.1 		"/>
	</g>
	<g>
		<path class="st3" d="M59,27.9h6.7c2.7,0,5.1,0.9,5.1,3.9c0,1.7-1.1,3.2-2.7,3.5v0c2,0.3,3.3,1.8,3.3,3.9c0,1.5-0.5,4.5-5.7,4.5H59
			V27.9z M60.5,34.8h5.2c2.4,0,3.6-1.2,3.6-2.7c0-2-1.2-3-3.6-3h-5.2V34.8z M60.5,42.4h5.2c2.2,0,4.2-0.7,4.2-3.3
			c0-2-1.5-3.1-4.2-3.1h-5.2V42.4z"/>
		<path class="st3" d="M73.5,32.2h1.3v2.7h0c0.7-1.8,2.3-2.9,4.3-2.8v1.4c-2.5-0.1-4.3,1.7-4.3,4.1v6.1h-1.4V32.2z"/>
		<path class="st3" d="M80.9,38.3c0,2,1.1,4.5,3.8,4.5c2,0,3.1-1.2,3.6-2.9h1.4c-0.6,2.6-2.1,4.1-5,4.1c-3.6,0-5.2-2.8-5.2-6.1
			c0-3,1.5-6.1,5.2-6.1c3.7,0,5.1,3.2,5,6.4H80.9z M88.3,37.2c-0.1-2.1-1.4-4.1-3.6-4.1c-2.3,0-3.5,2-3.8,4.1H88.3z"/>
		<path class="st3" d="M91.6,32.2h1.3v1.9h0.1c0.7-1.4,1.9-2.3,3.7-2.3c1.5,0,2.9,0.7,3.3,2.2c0.7-1.5,2.1-2.2,3.6-2.2
			c2.5,0,3.8,1.3,3.8,4v7.8H106V36c0-1.9-0.7-2.9-2.7-2.9c-2.4,0-3.1,2-3.1,4.1v6.5h-1.4v-7.8c0-1.6-0.6-2.8-2.4-2.8
			c-2.4,0-3.4,1.8-3.4,4.2v6.4h-1.4V32.2z"/>
		<path class="st3" d="M110.9,38.3c0,2,1.1,4.5,3.8,4.5c2,0,3.1-1.2,3.6-2.9h1.4c-0.6,2.6-2.1,4.1-5,4.1c-3.6,0-5.2-2.8-5.2-6.1
			c0-3,1.5-6.1,5.2-6.1c3.7,0,5.1,3.2,5,6.4H110.9z M118.3,37.2c-0.1-2.1-1.4-4.1-3.6-4.1c-2.3,0-3.5,2-3.8,4.1H118.3z"/>
		<path class="st3" d="M121.5,32.2h1.4v2h0c0.5-1.4,2-2.3,3.7-2.3c3.2,0,4.2,1.7,4.2,4.4v7.4h-1.4v-7.1c0-2-0.6-3.5-2.9-3.5
			c-2.2,0-3.5,1.7-3.6,3.9v6.7h-1.4V32.2z"/>
	</g>
</g>
<g id="Bremen_x5F_off_canvas" class="st4">
	<g class="st5">
		<polygon class="st6" points="0,0.1 0,43.7 43.6,43.7 43.6,29.2 14.5,29.2 14.5,0.1 		"/>
		<polygon class="st2" points="29.1,14.6 43.6,14.6 43.6,0.1 29.1,0.1 		"/>
		<polygon class="st6" points="85.3,13.5 87.3,11.5 93.5,21.1 99.4,21.1 90.5,8.3 98.7,0.1 92.4,0.1 85.3,7.8 85.3,0.1 80.8,0.1 
			80.8,21.1 85.3,21.1 		"/>
		<path class="st6" d="M70.1,7.1C70,8.5,69,9.6,67.5,9.8l-4.1,0l0-5.6l4.1,0C69,4.3,70.2,5.5,70.1,7.1z M70.9,12.8
			c2.1-1.2,3.5-3.4,3.5-5.9c0-3.8-3.3-6.8-7-6.8h-4.1H59v21h4.4v-7.3l2.8,0l4.8,7.3h5.8L70.9,12.8z"/>
		<polygon class="st6" points="100.2,0.1 105.9,21.1 110.5,21.1 113.5,7.2 116.6,21.1 121.1,21.1 126.8,0.1 122.1,0.1 118.8,14.7 
			115.8,0.1 111.3,0.1 108.3,14.7 105,0.1 		"/>
	</g>
	<g class="st5">
		<path class="st7" d="M59,27.9h6.7c2.7,0,5.1,0.9,5.1,3.9c0,1.7-1.1,3.2-2.7,3.5v0c2,0.3,3.3,1.8,3.3,3.9c0,1.5-0.5,4.5-5.7,4.5H59
			V27.9z M60.5,34.8h5.2c2.4,0,3.6-1.2,3.6-2.7c0-2-1.2-3-3.6-3h-5.2V34.8z M60.5,42.4h5.2c2.2,0,4.2-0.7,4.2-3.3
			c0-2-1.5-3.1-4.2-3.1h-5.2V42.4z"/>
		<path class="st7" d="M73.5,32.2h1.3v2.7h0c0.7-1.8,2.3-2.9,4.3-2.8v1.4c-2.5-0.1-4.3,1.7-4.3,4.1v6.1h-1.4V32.2z"/>
		<path class="st7" d="M80.9,38.3c0,2,1.1,4.5,3.8,4.5c2,0,3.1-1.2,3.6-2.9h1.4c-0.6,2.6-2.1,4.1-5,4.1c-3.6,0-5.2-2.8-5.2-6.1
			c0-3,1.5-6.1,5.2-6.1c3.7,0,5.1,3.2,5,6.4H80.9z M88.3,37.2c-0.1-2.1-1.4-4.1-3.6-4.1c-2.3,0-3.5,2-3.8,4.1H88.3z"/>
		<path class="st7" d="M91.6,32.2h1.3v1.9h0.1c0.7-1.4,1.9-2.3,3.7-2.3c1.5,0,2.9,0.7,3.3,2.2c0.7-1.5,2.1-2.2,3.6-2.2
			c2.5,0,3.8,1.3,3.8,4v7.8H106V36c0-1.9-0.7-2.9-2.7-2.9c-2.4,0-3.1,2-3.1,4.1v6.5h-1.4v-7.8c0-1.6-0.6-2.8-2.4-2.8
			c-2.4,0-3.4,1.8-3.4,4.2v6.4h-1.4V32.2z"/>
		<path class="st7" d="M110.9,38.3c0,2,1.1,4.5,3.8,4.5c2,0,3.1-1.2,3.6-2.9h1.4c-0.6,2.6-2.1,4.1-5,4.1c-3.6,0-5.2-2.8-5.2-6.1
			c0-3,1.5-6.1,5.2-6.1c3.7,0,5.1,3.2,5,6.4H110.9z M118.3,37.2c-0.1-2.1-1.4-4.1-3.6-4.1c-2.3,0-3.5,2-3.8,4.1H118.3z"/>
		<path class="st7" d="M121.5,32.2h1.4v2h0c0.5-1.4,2-2.3,3.7-2.3c3.2,0,4.2,1.7,4.2,4.4v7.4h-1.4v-7.1c0-2-0.6-3.5-2.9-3.5
			c-2.2,0-3.5,1.7-3.6,3.9v6.7h-1.4V32.2z"/>
	</g>
</g>
</svg>
